<svg width="414" height="127" viewBox="0 0 414 127" fill="none" xmlns="http://www.w3.org/2000/svg">
<g filter="url(#filter0_d_1_12)">
<rect x="96.0735" y="81.1404" width="71" height="8" rx="4" transform="rotate(-130.094 96.0735 81.1404)" fill="#1AA34A"/>
</g>
<g filter="url(#filter1_d_1_12)">
<rect x="82.3037" y="92.7332" width="71" height="8" rx="4" transform="rotate(-130.094 82.3037 92.7332)" fill="#1AA34A"/>
</g>
<g filter="url(#filter2_d_1_12)">
<rect x="68.5339" y="104.326" width="71" height="8" rx="4" transform="rotate(-130.094 68.5339 104.326)" fill="#1AA34A"/>
</g>
<path d="M135.318 53.8182C135.114 52.0909 134.284 50.75 132.83 49.7955C131.375 48.8409 129.591 48.3636 127.477 48.3636C125.932 48.3636 124.58 48.6136 123.42 49.1136C122.273 49.6136 121.375 50.3011 120.727 51.1761C120.091 52.0511 119.773 53.0455 119.773 54.1591C119.773 55.0909 119.994 55.892 120.438 56.5625C120.892 57.2216 121.472 57.7727 122.176 58.2159C122.881 58.6477 123.619 59.0057 124.392 59.2898C125.165 59.5625 125.875 59.7841 126.523 59.9545L130.068 60.9091C130.977 61.1477 131.989 61.4773 133.102 61.8977C134.227 62.3182 135.301 62.892 136.324 63.6193C137.358 64.3352 138.21 65.2557 138.881 66.3807C139.551 67.5057 139.886 68.8864 139.886 70.5227C139.886 72.4091 139.392 74.1136 138.403 75.6364C137.426 77.1591 135.994 78.3693 134.108 79.267C132.233 80.1648 129.955 80.6136 127.273 80.6136C124.773 80.6136 122.608 80.2102 120.778 79.4034C118.96 78.5966 117.528 77.4716 116.483 76.0284C115.449 74.5852 114.864 72.9091 114.727 71H119.091C119.205 72.3182 119.648 73.4091 120.42 74.2727C121.205 75.125 122.193 75.7614 123.386 76.1818C124.591 76.5909 125.886 76.7955 127.273 76.7955C128.886 76.7955 130.335 76.5341 131.619 76.0114C132.903 75.4773 133.92 74.7386 134.67 73.7955C135.42 72.8409 135.795 71.7273 135.795 70.4545C135.795 69.2955 135.472 68.3523 134.824 67.625C134.176 66.8977 133.324 66.3068 132.267 65.8523C131.21 65.3977 130.068 65 128.841 64.6591L124.545 63.4318C121.818 62.6477 119.659 61.5284 118.068 60.0739C116.477 58.6193 115.682 56.7159 115.682 54.3636C115.682 52.4091 116.21 50.7045 117.267 49.25C118.335 47.7841 119.767 46.6477 121.562 45.8409C123.369 45.0227 125.386 44.6136 127.614 44.6136C129.864 44.6136 131.864 45.017 133.614 45.8239C135.364 46.6193 136.75 47.7102 137.773 49.0966C138.807 50.483 139.352 52.0568 139.409 53.8182H135.318ZM156.928 80.5455C154.564 80.5455 152.49 79.983 150.706 78.858C148.933 77.733 147.547 76.1591 146.547 74.1364C145.558 72.1136 145.064 69.75 145.064 67.0455C145.064 64.3182 145.558 61.9375 146.547 59.9034C147.547 57.8693 148.933 56.2898 150.706 55.1648C152.49 54.0398 154.564 53.4773 156.928 53.4773C159.291 53.4773 161.359 54.0398 163.132 55.1648C164.916 56.2898 166.303 57.8693 167.291 59.9034C168.291 61.9375 168.791 64.3182 168.791 67.0455C168.791 69.75 168.291 72.1136 167.291 74.1364C166.303 76.1591 164.916 77.733 163.132 78.858C161.359 79.983 159.291 80.5455 156.928 80.5455ZM156.928 76.9318C158.723 76.9318 160.2 76.4716 161.359 75.5511C162.518 74.6307 163.376 73.4205 163.933 71.9205C164.49 70.4205 164.768 68.7955 164.768 67.0455C164.768 65.2955 164.49 63.6648 163.933 62.1534C163.376 60.642 162.518 59.4205 161.359 58.4886C160.2 57.5568 158.723 57.0909 156.928 57.0909C155.132 57.0909 153.655 57.5568 152.496 58.4886C151.337 59.4205 150.479 60.642 149.922 62.1534C149.365 63.6648 149.087 65.2955 149.087 67.0455C149.087 68.7955 149.365 70.4205 149.922 71.9205C150.479 73.4205 151.337 74.6307 152.496 75.5511C153.655 76.4716 155.132 76.9318 156.928 76.9318ZM191.432 69.2955V53.8182H195.455V80H191.432V75.5682H191.159C190.545 76.8977 189.591 78.0284 188.295 78.9602C187 79.8807 185.364 80.3409 183.386 80.3409C181.75 80.3409 180.295 79.983 179.023 79.267C177.75 78.5398 176.75 77.4489 176.023 75.9943C175.295 74.5284 174.932 72.6818 174.932 70.4545V53.8182H178.955V70.1818C178.955 72.0909 179.489 73.6136 180.557 74.75C181.636 75.8864 183.011 76.4545 184.682 76.4545C185.682 76.4545 186.699 76.1989 187.733 75.6875C188.778 75.1761 189.653 74.392 190.358 73.3352C191.074 72.2784 191.432 70.9318 191.432 69.2955ZM206.845 64.25V80H202.822V53.8182H206.709V57.9091H207.05C207.663 56.5795 208.595 55.5114 209.845 54.7045C211.095 53.8864 212.709 53.4773 214.686 53.4773C216.459 53.4773 218.01 53.8409 219.339 54.5682C220.669 55.2841 221.703 56.375 222.442 57.8409C223.18 59.2955 223.55 61.1364 223.55 63.3636V80H219.527V63.6364C219.527 61.5795 218.993 59.9773 217.925 58.8295C216.857 57.6705 215.391 57.0909 213.527 57.0909C212.243 57.0909 211.095 57.3693 210.084 57.9261C209.084 58.483 208.294 59.2955 207.714 60.3636C207.135 61.4318 206.845 62.7273 206.845 64.25ZM240.787 80.5455C238.605 80.5455 236.679 79.9943 235.009 78.892C233.338 77.7784 232.031 76.2102 231.088 74.1875C230.145 72.1534 229.673 69.75 229.673 66.9773C229.673 64.2273 230.145 61.8409 231.088 59.8182C232.031 57.7955 233.344 56.233 235.026 55.1307C236.707 54.0284 238.651 53.4773 240.855 53.4773C242.56 53.4773 243.906 53.7614 244.895 54.3295C245.895 54.8864 246.656 55.5227 247.179 56.2386C247.713 56.9432 248.128 57.5227 248.423 57.9773H248.764V45.0909H252.787V80H248.901V75.9773H248.423C248.128 76.4545 247.707 77.0568 247.162 77.7841C246.616 78.5 245.838 79.142 244.827 79.7102C243.815 80.267 242.469 80.5455 240.787 80.5455ZM241.332 76.9318C242.946 76.9318 244.31 76.5114 245.423 75.6705C246.537 74.8182 247.384 73.642 247.963 72.142C248.543 70.6307 248.832 68.8864 248.832 66.9091C248.832 64.9545 248.548 63.2443 247.98 61.7784C247.412 60.3011 246.571 59.1534 245.457 58.3352C244.344 57.5057 242.969 57.0909 241.332 57.0909C239.628 57.0909 238.207 57.5284 237.071 58.4034C235.946 59.267 235.099 60.4432 234.531 61.9318C233.974 63.4091 233.696 65.0682 233.696 66.9091C233.696 68.7727 233.98 70.4659 234.548 71.9886C235.128 73.5 235.98 74.7045 237.105 75.6023C238.241 76.4886 239.651 76.9318 241.332 76.9318ZM261.259 80V45.0909H273.054C275.781 45.0909 278.02 45.5568 279.77 46.4886C281.52 47.4091 282.815 48.6761 283.656 50.2898C284.497 51.9034 284.918 53.7386 284.918 55.7955C284.918 57.8523 284.497 59.6761 283.656 61.267C282.815 62.858 281.526 64.108 279.787 65.017C278.048 65.9148 275.827 66.3636 273.122 66.3636H263.577V62.5455H272.986C274.849 62.5455 276.349 62.2727 277.486 61.7273C278.634 61.1818 279.463 60.4091 279.974 59.4091C280.497 58.3977 280.759 57.1932 280.759 55.7955C280.759 54.3977 280.497 53.1761 279.974 52.1307C279.452 51.0852 278.616 50.2784 277.469 49.7102C276.321 49.1307 274.804 48.8409 272.918 48.8409H265.486V80H261.259ZM277.69 64.3182L286.281 80H281.372L272.918 64.3182H277.69ZM301.771 80.5455C299.408 80.5455 297.334 79.983 295.55 78.858C293.777 77.733 292.391 76.1591 291.391 74.1364C290.402 72.1136 289.908 69.75 289.908 67.0455C289.908 64.3182 290.402 61.9375 291.391 59.9034C292.391 57.8693 293.777 56.2898 295.55 55.1648C297.334 54.0398 299.408 53.4773 301.771 53.4773C304.135 53.4773 306.203 54.0398 307.976 55.1648C309.76 56.2898 311.146 57.8693 312.135 59.9034C313.135 61.9375 313.635 64.3182 313.635 67.0455C313.635 69.75 313.135 72.1136 312.135 74.1364C311.146 76.1591 309.76 77.733 307.976 78.858C306.203 79.983 304.135 80.5455 301.771 80.5455ZM301.771 76.9318C303.567 76.9318 305.044 76.4716 306.203 75.5511C307.362 74.6307 308.22 73.4205 308.777 71.9205C309.334 70.4205 309.612 68.7955 309.612 67.0455C309.612 65.2955 309.334 63.6648 308.777 62.1534C308.22 60.642 307.362 59.4205 306.203 58.4886C305.044 57.5568 303.567 57.0909 301.771 57.0909C299.976 57.0909 298.499 57.5568 297.339 58.4886C296.18 59.4205 295.322 60.642 294.766 62.1534C294.209 63.6648 293.93 65.2955 293.93 67.0455C293.93 68.7955 294.209 70.4205 294.766 71.9205C295.322 73.4205 296.18 74.6307 297.339 75.5511C298.499 76.4716 299.976 76.9318 301.771 76.9318ZM330.412 80.5455C328.048 80.5455 325.974 79.983 324.19 78.858C322.418 77.733 321.031 76.1591 320.031 74.1364C319.043 72.1136 318.548 69.75 318.548 67.0455C318.548 64.3182 319.043 61.9375 320.031 59.9034C321.031 57.8693 322.418 56.2898 324.19 55.1648C325.974 54.0398 328.048 53.4773 330.412 53.4773C332.776 53.4773 334.844 54.0398 336.616 55.1648C338.401 56.2898 339.787 57.8693 340.776 59.9034C341.776 61.9375 342.276 64.3182 342.276 67.0455C342.276 69.75 341.776 72.1136 340.776 74.1364C339.787 76.1591 338.401 77.733 336.616 78.858C334.844 79.983 332.776 80.5455 330.412 80.5455ZM330.412 76.9318C332.207 76.9318 333.685 76.4716 334.844 75.5511C336.003 74.6307 336.861 73.4205 337.418 71.9205C337.974 70.4205 338.253 68.7955 338.253 67.0455C338.253 65.2955 337.974 63.6648 337.418 62.1534C336.861 60.642 336.003 59.4205 334.844 58.4886C333.685 57.5568 332.207 57.0909 330.412 57.0909C328.616 57.0909 327.139 57.5568 325.98 58.4886C324.821 59.4205 323.963 60.642 323.406 62.1534C322.849 63.6648 322.571 65.2955 322.571 67.0455C322.571 68.7955 322.849 70.4205 323.406 71.9205C323.963 73.4205 324.821 74.6307 325.98 75.5511C327.139 76.4716 328.616 76.9318 330.412 76.9318ZM348.416 80V53.8182H352.303V57.9091H352.643C353.189 56.5114 354.07 55.4261 355.286 54.6534C356.501 53.8693 357.962 53.4773 359.666 53.4773C361.393 53.4773 362.831 53.8693 363.979 54.6534C365.138 55.4261 366.041 56.5114 366.689 57.9091H366.962C367.632 56.5568 368.638 55.483 369.979 54.6875C371.32 53.8807 372.928 53.4773 374.803 53.4773C377.143 53.4773 379.058 54.2102 380.547 55.6761C382.036 57.1307 382.78 59.3977 382.78 62.4773V80H378.757V62.4773C378.757 60.5455 378.229 59.1648 377.172 58.3352C376.115 57.5057 374.871 57.0909 373.439 57.0909C371.598 57.0909 370.172 57.6477 369.161 58.7614C368.149 59.8636 367.643 61.2614 367.643 62.9545V80H363.553V62.0682C363.553 60.5795 363.07 59.3807 362.104 58.4716C361.138 57.5511 359.893 57.0909 358.371 57.0909C357.325 57.0909 356.348 57.3693 355.439 57.9261C354.541 58.483 353.814 59.2557 353.257 60.2443C352.712 61.2216 352.439 62.3523 352.439 63.6364V80H348.416Z" fill="#1AA34A"/>
<defs>
<filter id="filter0_d_1_12" x="47.9822" y="23.3101" width="56.5752" height="64.1943" filterUnits="userSpaceOnUse" color-interpolation-filters="sRGB">
<feFlood flood-opacity="0" result="BackgroundImageFix"/>
<feColorMatrix in="SourceAlpha" type="matrix" values="0 0 0 0 0 0 0 0 0 0 0 0 0 0 0 0 0 0 127 0" result="hardAlpha"/>
<feOffset dy="4"/>
<feGaussianBlur stdDeviation="2"/>
<feComposite in2="hardAlpha" operator="out"/>
<feColorMatrix type="matrix" values="0 0 0 0 0 0 0 0 0 0 0 0 0 0 0 0 0 0 0.25 0"/>
<feBlend mode="normal" in2="BackgroundImageFix" result="effect1_dropShadow_1_12"/>
<feBlend mode="normal" in="SourceGraphic" in2="effect1_dropShadow_1_12" result="shape"/>
</filter>
<filter id="filter1_d_1_12" x="34.2124" y="34.9028" width="56.5752" height="64.1943" filterUnits="userSpaceOnUse" color-interpolation-filters="sRGB">
<feFlood flood-opacity="0" result="BackgroundImageFix"/>
<feColorMatrix in="SourceAlpha" type="matrix" values="0 0 0 0 0 0 0 0 0 0 0 0 0 0 0 0 0 0 127 0" result="hardAlpha"/>
<feOffset dy="4"/>
<feGaussianBlur stdDeviation="2"/>
<feComposite in2="hardAlpha" operator="out"/>
<feColorMatrix type="matrix" values="0 0 0 0 0 0 0 0 0 0 0 0 0 0 0 0 0 0 0.25 0"/>
<feBlend mode="normal" in2="BackgroundImageFix" result="effect1_dropShadow_1_12"/>
<feBlend mode="normal" in="SourceGraphic" in2="effect1_dropShadow_1_12" result="shape"/>
</filter>
<filter id="filter2_d_1_12" x="20.4426" y="46.4958" width="56.5752" height="64.1942" filterUnits="userSpaceOnUse" color-interpolation-filters="sRGB">
<feFlood flood-opacity="0" result="BackgroundImageFix"/>
<feColorMatrix in="SourceAlpha" type="matrix" values="0 0 0 0 0 0 0 0 0 0 0 0 0 0 0 0 0 0 127 0" result="hardAlpha"/>
<feOffset dy="4"/>
<feGaussianBlur stdDeviation="2"/>
<feComposite in2="hardAlpha" operator="out"/>
<feColorMatrix type="matrix" values="0 0 0 0 0 0 0 0 0 0 0 0 0 0 0 0 0 0 0.25 0"/>
<feBlend mode="normal" in2="BackgroundImageFix" result="effect1_dropShadow_1_12"/>
<feBlend mode="normal" in="SourceGraphic" in2="effect1_dropShadow_1_12" result="shape"/>
</filter>
</defs>
</svg>
